Coordinates
version=1
nRows=17
nColumns=24
inDegrees=yes

Units are S.I. units (second, meters, Newtons, ...)
Angles are in degrees.

endheader
time	pelvis_tilt	pelvis_list	pelvis_rotation	pelvis_tx	pelvis_ty	pelvis_tz	hip_flexion_r	hip_adduction_r	hip_rotation_r	knee_angle_r	ankle_angle_r	subtalar_angle_r	mtp_angle_r	hip_flexion_l	hip_adduction_l	hip_rotation_l	knee_angle_l	ankle_angle_l	subtalar_angle_l	mtp_angle_l	lumbar_extension	lumbar_bending	lumbar_rotation
      3.74500000	     25.04817452	      1.67720971	      1.89239833	      0.61760925	      1.02275335	      0.01977220	    -32.27206388	     -5.03398420	    -11.77630885	    -32.79179707	      3.36546491	     -2.88468499	     49.79705152	     -6.49577188	      1.73482047	     -2.97260493	    -18.04614284	      2.06876333	     -6.37814329	      5.69841209	    -39.11678763	     -2.45263173	      0.75316584
      3.75000000	     25.07146202	      1.83842216	      1.73247806	      0.62308537	      1.02323978	      0.01885441	    -31.54081717	     -5.55320577	    -11.78271501	    -34.36796062	      2.51138719	     -3.22524599	     49.90198565	     -6.81199642	      1.99148830	     -3.05023028	    -18.18674352	      2.45287338	     -6.41933762	      5.65147880	    -39.08355594	     -2.71937247	      0.76292545
      3.75500000	     24.97477287	      1.91475479	      1.62574275	      0.62842719	      1.02359294	      0.01793194	    -30.64544004	     -5.95275661	    -11.72856946	    -35.92296339	      1.63837341	     -3.66605270	     50.46186681	     -6.96022060	      2.14091908	     -3.14834021	    -18.38481745	      2.94051815	     -6.35700764	      5.43431796	    -38.93309947	     -2.88192048	      0.75621366
      3.76000000	     24.95337007	      2.05271722	      1.51907757	      0.63382956	      1.02405628	      0.01707675	    -29.87224816	     -6.39348468	    -11.72778811	    -37.36705963	      0.81366078	     -4.35135926	     52.36420639	     -7.25841917	      2.34298487	     -3.25243322	    -18.46989870	      3.54285957	     -6.07165272	      4.57526515	    -38.85510575	     -3.10236764	      0.69276683
      3.76500000	     24.96277320	      2.18787956	      1.32256501	      0.63915600	      1.02458801	      0.01629740	    -29.09166926	     -6.88106804	    -11.64367408	    -38.81943026	      0.23734148	     -4.77755209	     52.38839147	     -7.64877801	      2.56744641	     -3.42191427	    -18.42298385	      3.86255248	     -6.05446385	      4.54051522	    -38.80946893	     -3.36297420	      0.73382566
      3.77000000	     24.92639841	      2.27047559	      1.14887180	      0.64438177	      1.02508003	      0.01556881	    -28.24768467	     -7.28306407	    -11.51217227	    -40.21971133	     -0.24365938	     -5.28687250	     52.44363511	     -7.97646091	      2.71980977	     -3.62519906	    -18.39150502	      4.25266387	     -5.89715918	      4.50587876	    -38.72317113	     -3.56605499	      0.77368182
      3.77500000	     24.89796341	      2.33503583	      0.96423883	      0.64956816	      1.02560179	      0.01490278	    -27.41105977	     -7.65579003	    -11.35242364	    -41.55353972	     -0.62110067	     -5.80120982	     52.50625382	     -8.33134560	      2.84910242	     -3.86246206	    -18.32043052	      4.62769284	     -5.70054213	      4.46342624	    -38.64320399	     -3.75868746	      0.82737962
      3.78000000	     24.86620783	      2.35234997	      0.77110319	      0.65467828	      1.02616014	      0.01430496	    -26.56273151	     -7.96260474	    -11.14194759	    -42.81580787	     -0.90590602	     -6.32753029	     52.57571753	     -8.68690568	      2.92330031	     -4.14669029	    -18.23456012	      5.00601650	     -5.47352067	      4.39735841	    -38.56297785	     -3.91312395	      0.91279185
      3.78500000	     24.84279563	      2.35857767	      0.57830359	      0.65974192	      1.02674560	      0.01372834	    -25.72546847	     -8.24665256	    -10.93534049	    -44.01120116	     -1.09104682	     -6.83269471	     52.62219542	     -9.06383623	      2.98612994	     -4.43684429	    -18.11906677	      5.36072266	     -5.23534789	      4.31977067	    -38.49196535	     -4.05358728	      1.00405357
      3.79000000	     24.83611473	      2.34506858	      0.37906116	      0.66475354	      1.02738290	      0.01319018	    -24.90940762	     -8.49431546	    -10.70780860	    -45.12963548	     -1.18336486	     -7.31680040	     52.63390855	     -9.47400693	      3.03053856	     -4.72615296	    -17.96781756	      5.68823214	     -4.98460699	      4.23700115	    -38.44095635	     -4.17678511	      1.11625226
      3.79500000	     24.86355081	      2.35636565	      0.19467102	      0.66974086	      1.02808631	      0.01265022	    -24.15049100	     -8.75225378	    -10.53320799	    -46.16593688	     -1.19117771	     -7.76952093	     52.61110730	     -9.93291975	      3.10328075	     -4.98821942	    -17.78662706	      5.94107494	     -4.76669683	      4.20398190	    -38.42806189	     -4.31074220	      1.17433226
      3.80000000	     24.83764172	      2.25765702	     -0.02415283	      0.67464641	      1.02877185	      0.01222410	    -23.30646898	     -8.87538465	    -10.22258853	    -47.13496050	     -1.14324351	     -8.20464446	     52.56014641	    -10.33814813	      3.06228542	     -5.29538141	    -17.59377716	      6.23758443	     -4.49092248	      4.14773298	    -38.35825395	     -4.36721351	      1.37220322
      3.80500000	     24.84471340	      2.13985197	     -0.22300805	      0.67947311	      1.02949335	      0.01180433	    -22.50819269	     -8.95538222	     -9.93906980	    -48.02666976	     -1.04389001	     -8.58414804	     52.45442505	    -10.75794585	      2.99665441	     -5.61292270	    -17.44090490	      6.57358992	     -4.21830187	      4.04218272	    -38.33109943	     -4.39147571	      1.55190091
      3.81000000	     24.85753815	      2.05099578	     -0.42072890	      0.68430911	      1.03025373	      0.01138220	    -21.73372180	     -9.05437149	     -9.68900967	    -48.83964908	     -0.88681727	     -8.93690303	     52.35828329	    -11.21399168	      2.97350012	     -5.87879170	    -17.21940545	      6.79249589	     -4.00261494	      3.97171305	    -38.30795288	     -4.43691458	      1.70426189
      3.81500000	     24.88086376	      1.88149142	     -0.60517503	      0.68903290	      1.03103384	      0.01101875	    -20.96771985	     -9.03129391	     -9.39048381	    -49.57575436	     -0.71111657	     -9.22867056	     52.15627987	    -11.64946183	      2.85366316	     -6.18256708	    -17.06308495	      7.11201958	     -3.72029514	      3.83223287	    -38.30574206	     -4.40353660	      1.90211910
      3.82000000	     24.93211698	      1.76986970	     -0.78915592	      0.69377214	      1.03185195	      0.01062949	    -20.25432174	     -9.06401087	     -9.14746438	    -50.23816115	     -0.46280878	     -9.49438641	     52.05581805	    -12.14773100	      2.81431038	     -6.41804257	    -16.83049781	      7.28273468	     -3.58077278	      3.77249102	    -38.33257136	     -4.41669576	      2.03721351
      3.82500000	     24.93515766	      1.55116216	     -0.93803329	      0.69847111	      1.03264324	      0.01030932	    -19.50078932	     -8.93420739	     -8.87422422	    -50.80712560	     -0.22325388	     -9.70875479	     51.61352471	    -12.56899595	      2.63442538	     -6.69728502	    -16.66018701	      7.61283035	     -3.21118596	      3.50484205	    -38.31046673	     -4.31975970	      2.24918585
